<?xml version="1.0" encoding="utf-8"?>
<svg version="1.1" xmlns:xlink="http://www.w3.org/1999/xlink" width="12px" height="12px" xmlns="http://www.w3.org/2000/svg">
  <g transform="matrix(1 0 0 1 -50 -60 )">
    <path d="M 3.81818181818182 6.46153846153846  L 4.90909090909091 11.0769230769231  L 5.72727272727273 7.84615384615385  L 4.90909090909091 6.92307692307692  L 3.81818181818182 6.46153846153846  Z M 6.27272727272727 7.84615384615385  L 7.09090909090909 11.0769230769231  L 8.18181818181818 6.46153846153846  L 7.09090909090909 6.92307692307692  L 6.27272727272727 7.84615384615385  Z M 8.42045454545455 3.98798076923077  C 8.43181818181818 3.94471153846154  8.44318181818182 3.87980769230769  8.45454545454546 3.79326923076923  C 8.44318181818182 3.77403846153846  8.43181818181818 3.75961538461538  8.42045454545455 3.75  C 8.36363636363637 3.71153846153846  8.09090909090909 3.69230769230769  7.60227272727273 3.69230769230769  C 7.20454545454546 3.69230769230769  6.73011363636364 3.73798076923077  6.17897727272727 3.82932692307692  C 6.13920454545455 3.83894230769231  6.07954545454546 3.84375  6 3.84375  C 5.92045454545455 3.84375  5.86079545454546 3.83894230769231  5.82102272727273 3.82932692307692  C 5.26988636363636 3.73798076923077  4.79545454545455 3.69230769230769  4.39772727272727 3.69230769230769  C 3.90909090909091 3.69230769230769  3.63636363636364 3.71153846153846  3.57954545454545 3.75  C 3.56818181818182 3.75961538461538  3.55681818181818 3.77403846153846  3.54545454545455 3.79326923076923  C 3.55681818181818 3.87980769230769  3.56818181818182 3.94471153846154  3.57954545454545 3.98798076923077  C 3.59090909090909 4.00240384615385  3.61221590909091 4.01802884615384  3.64346590909091 4.03485576923077  C 3.67471590909091 4.05168269230769  3.69602272727273 4.07692307692308  3.70738636363636 4.11057692307692  C 3.71875 4.12980769230769  3.74005681818182 4.17908653846154  3.77130681818182 4.25841346153846  C 3.80255681818182 4.33774038461539  3.82244318181818 4.38701923076923  3.83096590909091 4.40625  C 3.83948863636364 4.42548076923077  3.86079545454545 4.46634615384615  3.89488636363636 4.52884615384615  C 3.92897727272727 4.59134615384615  3.953125 4.63221153846154  3.96732954545455 4.65144230769231  C 3.98153409090909 4.67067307692308  4.00710227272727 4.70432692307692  4.04403409090909 4.75240384615385  C 4.08096590909091 4.80048076923077  4.11505681818182 4.83293269230769  4.14630681818182 4.84975961538462  C 4.17755681818182 4.86658653846154  4.21732954545455 4.88942307692308  4.265625 4.91826923076923  C 4.31392045454546 4.94711538461539  4.36363636363636 4.96634615384615  4.41477272727273 4.97596153846154  C 4.46590909090909 4.98557692307692  4.52414772727273 4.99519230769231  4.58948863636364 5.00480769230769  C 4.65482954545455 5.01442307692308  4.72443181818182 5.01923076923077  4.79829545454545 5.01923076923077  C 5.00284090909091 5.01923076923077  5.17045454545455 4.98918269230769  5.30113636363636 4.92908653846154  C 5.43181818181818 4.86899038461538  5.52414772727273 4.796875  5.578125 4.71274038461539  C 5.63210227272727 4.62860576923077  5.67329545454546 4.54567307692308  5.70170454545455 4.46394230769231  C 5.73011363636364 4.38221153846154  5.76278409090909 4.31129807692308  5.79971590909091 4.25120192307692  C 5.83664772727273 4.19110576923077  5.88636363636364 4.16105769230769  5.94886363636364 4.16105769230769  L 6.05113636363636 4.16105769230769  C 6.11363636363636 4.16105769230769  6.16335227272727 4.19110576923077  6.20028409090909 4.25120192307692  C 6.23721590909091 4.31129807692308  6.26988636363637 4.38221153846154  6.29829545454546 4.46394230769231  C 6.32670454545455 4.54567307692308  6.36789772727273 4.62860576923077  6.421875 4.71274038461539  C 6.47585227272727 4.796875  6.56818181818182 4.86899038461538  6.69886363636364 4.92908653846154  C 6.82954545454546 4.98918269230769  6.99715909090909 5.01923076923077  7.20170454545455 5.01923076923077  C 7.27556818181818 5.01923076923077  7.34517045454546 5.01442307692308  7.41051136363636 5.00480769230769  C 7.47585227272727 4.99519230769231  7.53409090909091 4.98557692307692  7.58522727272727 4.97596153846154  C 7.63636363636364 4.96634615384615  7.68607954545455 4.94711538461539  7.734375 4.91826923076923  C 7.78267045454546 4.88942307692308  7.82244318181818 4.86658653846154  7.85369318181818 4.84975961538462  C 7.88494318181818 4.83293269230769  7.91903409090909 4.80048076923077  7.95596590909091 4.75240384615385  C 7.99289772727273 4.70432692307692  8.01846590909091 4.67067307692308  8.03267045454546 4.65144230769231  C 8.046875 4.63221153846154  8.07102272727273 4.59134615384615  8.10511363636364 4.52884615384615  C 8.13920454545455 4.46634615384615  8.16051136363637 4.42548076923077  8.16903409090909 4.40625  C 8.17755681818182 4.38701923076923  8.19744318181818 4.33774038461539  8.22869318181818 4.25841346153846  C 8.25994318181818 4.17908653846154  8.28125 4.12980769230769  8.29261363636364 4.11057692307692  C 8.30397727272727 4.07692307692308  8.32528409090909 4.05168269230769  8.35653409090909 4.03485576923077  C 8.38778409090909 4.01802884615384  8.40909090909091 4.00240384615385  8.42045454545455 3.98798076923077  Z M 11.9318181818182 9.06129807692308  C 11.9772727272727 9.40504807692308  12 9.76201923076923  12 10.1322115384615  C 12 10.7139423076923  11.7926136363636 11.1706730769231  11.3778409090909 11.5024038461538  C 10.9630681818182 11.8341346153846  10.4119318181818 12  9.72443181818182 12  L 2.27556818181818 12  C 1.58806818181818 12  1.03693181818182 11.8341346153846  0.622159090909091 11.5024038461538  C 0.207386363636364 11.1706730769231  0 10.7139423076923  0 10.1322115384615  C 0 9.83894230769231  0.0127840909090909 9.55528846153846  0.0383522727272727 9.28125  C 0.0639204545454546 9.00721153846154  0.117897727272727 8.70552884615384  0.200284090909091 8.37620192307692  C 0.282670454545455 8.046875  0.389204545454546 7.75  0.519886363636364 7.48557692307692  C 0.650568181818182 7.22115384615385  0.830965909090909 6.97235576923077  1.06107954545455 6.73918269230769  C 1.29119318181818 6.50600961538462  1.55681818181818 6.32692307692308  1.85795454545455 6.20192307692308  L 1.09090909090909 4.61538461538462  L 2.91477272727273 4.61538461538462  C 2.78977272727273 4.30769230769231  2.72727272727273 4  2.72727272727273 3.69230769230769  C 2.72727272727273 3.63461538461539  2.73295454545455 3.55769230769231  2.74431818181818 3.46153846153846  C 1.64204545454545 3.26923076923077  1.09090909090909 3.03846153846154  1.09090909090909 2.76923076923077  C 1.09090909090909 2.49519230769231  1.6875 2.25721153846154  2.88068181818182 2.05528846153846  C 2.97727272727273 1.75721153846154  3.12357954545455 1.43509615384615  3.31960227272727 1.08894230769231  C 3.515625 0.742788461538461  3.71590909090909 0.46875  3.92045454545455 0.266826923076922  C 4.10227272727273 0.0889423076923084  4.31818181818182 0  4.56818181818182 0  C 4.73863636363636 0  4.97727272727273 0.0745192307692322  5.28409090909091 0.223557692307693  C 5.59090909090909 0.372596153846153  5.82954545454545 0.447115384615385  6 0.447115384615385  C 6.17045454545455 0.447115384615385  6.40909090909091 0.372596153846153  6.71590909090909 0.223557692307693  C 7.02272727272727 0.0745192307692322  7.26136363636364 0  7.43181818181818 0  C 7.68181818181818 0  7.89772727272727 0.0889423076923084  8.07954545454546 0.266826923076922  C 8.28409090909091 0.46875  8.484375 0.742788461538461  8.68039772727273 1.08894230769231  C 8.87642045454546 1.43509615384615  9.02272727272727 1.75721153846154  9.11931818181818 2.05528846153846  C 10.3125 2.25721153846154  10.9090909090909 2.49519230769231  10.9090909090909 2.76923076923077  C 10.9090909090909 3.03846153846154  10.3579545454545 3.26923076923077  9.25568181818182 3.46153846153846  C 9.29545454545455 3.85096153846154  9.23863636363636 4.23557692307692  9.08522727272727 4.61538461538462  L 10.9090909090909 4.61538461538462  L 10.2102272727273 6.23798076923077  C 10.5681818181818 6.39663461538462  10.8735795454545 6.62860576923077  11.1264204545455 6.93389423076923  C 11.3792613636364 7.23918269230769  11.5653409090909 7.58413461538462  11.6846590909091 7.96875  C 11.8039772727273 8.35336538461538  11.8863636363636 8.71754807692308  11.9318181818182 9.06129807692308  Z " fill-rule="nonzero" fill="#000000" stroke="none" transform="matrix(1 0 0 1 50 60 )" />
  </g>
</svg>