<?xml version="1.0" encoding="utf-8"?>
<svg version="1.1" xmlns:xlink="http://www.w3.org/1999/xlink" width="50px" height="33px" xmlns="http://www.w3.org/2000/svg">
  <g transform="matrix(1 0 0 1 -381 -40 )">
    <path d="M 20 20.625  L 20 23  L 30 23  L 30 20.625  L 26 20.625  L 26 9.075  L 23.6979166666667 9.075  L 19.84375 12.60703125  L 21.8489583333333 14.66953125  C 22.578125 14.03359375  23.0555555555556 13.54375  23.28125 13.2  L 23.3333333333333 13.2  L 23.3333333333333 20.625  L 20 20.625  Z M 32.7864583333333 12.8390625  C 33.1510416666667 14.0765625  33.3333333333333 15.296875  33.3333333333333 16.5  C 33.3333333333333 17.703125  33.1510416666667 18.9234375  32.7864583333333 20.1609375  C 32.421875 21.3984375  31.9053819444444 22.55  31.2369791666667 23.615625  C 30.5685763888889 24.68125  29.6875 25.54921875  28.59375 26.21953125  C 27.5 26.88984375  26.3020833333333 27.225  25 27.225  C 23.6979166666667 27.225  22.5 26.88984375  21.40625 26.21953125  C 20.3125 25.54921875  19.4314236111111 24.68125  18.7630208333333 23.615625  C 18.0946180555556 22.55  17.578125 21.3984375  17.2135416666667 20.1609375  C 16.8489583333333 18.9234375  16.6666666666667 17.703125  16.6666666666667 16.5  C 16.6666666666667 15.296875  16.8489583333333 14.0765625  17.2135416666667 12.8390625  C 17.578125 11.6015625  18.0946180555556 10.45  18.7630208333333 9.384375  C 19.4314236111111 8.31875  20.3125 7.45078125  21.40625 6.78046875  C 22.5 6.11015625  23.6979166666667 5.775  25 5.775  C 26.3020833333333 5.775  27.5 6.11015625  28.59375 6.78046875  C 29.6875 7.45078125  30.5685763888889 8.31875  31.2369791666667 9.384375  C 31.9053819444444 10.45  32.421875 11.6015625  32.7864583333333 12.8390625  Z M 41.953125 25.03359375  C 43.2552083333333 23.74453125  44.8263888888889 23.1  46 23.1  L 46 9.9  C 44.8263888888889 9.9  43.2552083333333 9.25546875  41.953125 7.96640625  C 40.6510416666667 6.67734375  40 5.12187499999999  40 3.3  L 10 3.3  C 10 5.12187499999999  9.34895833333333 6.67734375  8.046875 7.96640625  C 6.74479166666667 9.25546875  5.17361111111111 9.9  4 9.9  L 4 23.1  C 5.17361111111111 23.1  6.74479166666667 23.74453125  8.046875 25.03359375  C 9.34895833333333 26.32265625  10 27.878125  10 29.7  L 40 29.7  C 40 27.878125  40.6510416666667 26.32265625  41.953125 25.03359375  Z M 49.5052083333333 0.489843750000001  C 49.8350694444445 0.816406249999998  50 1.203125  50 1.65  L 50 31.35  C 50 31.796875  49.8350694444445 32.18359375  49.5052083333333 32.51015625  C 49.1753472222222 32.83671875  48.7847222222222 33  48.3333333333333 33  L 1.66666666666667 33  C 1.21527777777778 33  0.824652777777778 32.83671875  0.494791666666667 32.51015625  C 0.164930555555556 32.18359375  0 31.796875  0 31.35  L 0 1.65  C 0 1.203125  0.164930555555556 0.816406249999998  0.494791666666667 0.489843750000001  C 0.824652777777778 0.163281249999998  1.21527777777778 0  1.66666666666667 0  L 48.3333333333333 0  C 48.7847222222222 0  49.1753472222222 0.163281249999998  49.5052083333333 0.489843750000001  Z " fill-rule="nonzero" fill="#000000" stroke="none" transform="matrix(1 0 0 1 381 40 )" />
  </g>
</svg>