<?xml version="1.0" encoding="utf-8"?>
<svg version="1.1" xmlns:xlink="http://www.w3.org/1999/xlink" width="12px" height="12px" xmlns="http://www.w3.org/2000/svg">
  <g transform="matrix(1 0 0 1 -50 -40 )">
    <path d="M 11.9203125 8.67578125  C 11.9734375 9.06901041666667  12 9.48697916666667  12 9.9296875  C 12 10.4973958333333  11.8046875 10.984375  11.4140625 11.390625  C 11.0234375 11.796875  10.553125 12  10.003125 12  L 1.996875 12  C 1.446875 12  0.9765625 11.796875  0.5859375 11.390625  C 0.1953125 10.984375  0 10.4973958333333  0 9.9296875  C 0 9.48697916666667  0.0265625000000001 9.06901041666667  0.0796875000000001 8.67578125  C 0.1328125 8.28255208333333  0.23125 7.88671875  0.375 7.48828125  C 0.51875 7.08984375  0.7015625 6.74869791666667  0.9234375 6.46484375  C 1.1453125 6.18098958333333  1.4390625 5.94921875  1.8046875 5.76953125  C 2.1703125 5.58984375  2.590625 5.5  3.065625 5.5  C 3.884375 6.16666666666667  4.8625 6.5  6 6.5  C 7.1375 6.5  8.115625 6.16666666666667  8.934375 5.5  C 9.409375 5.5  9.8296875 5.58984375  10.1953125 5.76953125  C 10.5609375 5.94921875  10.8546875 6.18098958333333  11.0765625 6.46484375  C 11.2984375 6.74869791666667  11.48125 7.08984375  11.625 7.48828125  C 11.76875 7.88671875  11.8671875 8.28255208333333  11.9203125 8.67578125  Z M 8.5453125 0.87890625  C 9.2484375 1.46484375  9.6 2.171875  9.6 3  C 9.6 3.828125  9.2484375 4.53515625  8.5453125 5.12109375  C 7.8421875 5.70703125  6.99375 6  6 6  C 5.00625 6  4.1578125 5.70703125  3.4546875 5.12109375  C 2.7515625 4.53515625  2.4 3.828125  2.4 3  C 2.4 2.171875  2.7515625 1.46484375  3.4546875 0.87890625  C 4.1578125 0.29296875  5.00625 0  6 0  C 6.99375 0  7.8421875 0.29296875  8.5453125 0.87890625  Z " fill-rule="nonzero" fill="#000000" stroke="none" transform="matrix(1 0 0 1 50 40 )" />
  </g>
</svg>