<?xml version="1.0" encoding="utf-8"?>
<svg version="1.1" xmlns:xlink="http://www.w3.org/1999/xlink" width="9px" height="20px" xmlns="http://www.w3.org/2000/svg">
  <g transform="matrix(1 0 0 1 -738 -486 )">
    <path d="M 8.5078125 6.09090909090911  C 8.8359375 6.51515151515152  9 7.03030303030302  9 7.63636363636364  L 9 12.3636363636364  C 9 12.6666666666667  8.91796875 12.9242424242424  8.75390625 13.1363636363636  C 8.58984375 13.3484848484849  8.390625 13.4545454545455  8.15625 13.4545454545455  C 7.921875 13.4545454545455  7.72265625 13.3484848484849  7.55859375 13.1363636363636  C 7.39453125 12.9242424242424  7.3125 12.6666666666667  7.3125 12.3636363636364  L 7.3125 8.36363636363637  L 6.75 8.36363636363637  L 6.75 18.7272727272727  C 6.75 19.0757575757576  6.6533203125 19.375  6.4599609375 19.625  C 6.2666015625 19.875  6.03515625 20  5.765625 20  C 5.49609375 20  5.2646484375 19.875  5.0712890625 19.625  C 4.8779296875 19.375  4.78125 19.0757575757576  4.78125 18.7272727272727  L 4.78125 13.4545454545455  L 4.21875 13.4545454545455  L 4.21875 18.7272727272727  C 4.21875 19.0757575757576  4.1220703125 19.375  3.9287109375 19.625  C 3.7353515625 19.875  3.50390625 20  3.234375 20  C 2.96484375 20  2.7333984375 19.875  2.5400390625 19.625  C 2.3466796875 19.375  2.25 19.0757575757576  2.25 18.7272727272727  L 2.25 8.36363636363637  L 1.6875 8.36363636363637  L 1.6875 12.3636363636364  C 1.6875 12.6666666666667  1.60546875 12.9242424242424  1.44140625 13.1363636363636  C 1.27734375 13.3484848484849  1.078125 13.4545454545455  0.84375 13.4545454545455  C 0.609375 13.4545454545455  0.41015625 13.3484848484849  0.24609375 13.1363636363636  C 0.08203125 12.9242424242424  0 12.6666666666667  0 12.3636363636364  L 0 7.63636363636364  C 0 7.03030303030302  0.1640625 6.51515151515152  0.4921875 6.09090909090911  C 0.8203125 5.66666666666667  1.21875 5.45454545454545  1.6875 5.45454545454545  L 7.3125 5.45454545454545  C 7.78125 5.45454545454545  8.1796875 5.66666666666667  8.5078125 6.09090909090911  Z M 5.89306640625 0.744318181818187  C 6.27685546875 1.2405303030303  6.46875 1.84090909090908  6.46875 2.54545454545455  C 6.46875 3.25  6.27685546875 3.8503787878788  5.89306640625 4.34659090909092  C 5.50927734375 4.84280303030305  5.044921875 5.09090909090908  4.5 5.09090909090908  C 3.955078125 5.09090909090908  3.49072265625 4.84280303030305  3.10693359375 4.34659090909092  C 2.72314453125 3.8503787878788  2.53125 3.25  2.53125 2.54545454545455  C 2.53125 1.84090909090908  2.72314453125 1.2405303030303  3.10693359375 0.744318181818187  C 3.49072265625 0.248106060606062  3.955078125 0  4.5 0  C 5.044921875 0  5.50927734375 0.248106060606062  5.89306640625 0.744318181818187  Z " fill-rule="nonzero" fill="#ffcc33" stroke="none" transform="matrix(1 0 0 1 738 486 )" />
  </g>
</svg>