<?xml version="1.0" encoding="utf-8"?>
<svg version="1.1" xmlns:xlink="http://www.w3.org/1999/xlink" width="11px" height="11px" xmlns="http://www.w3.org/2000/svg">
  <g transform="matrix(1 0 0 1 -489 -494 )">
    <path d="M 10.5631510416667 3.36588541666697  C 10.8543836805555 4.04383680555566  11 4.75520833333303  11 5.5  C 11 6.24479166666697  10.8543836805555 6.95616319444434  10.5631510416667 7.63411458333303  C 10.2719184027778 8.31206597222172  9.88042534722223 8.89691840277828  9.388671875 9.388671875  C 8.89691840277777 9.88042534722172  8.31206597222223 10.2719184027783  7.63411458333331 10.563151041667  C 6.95616319444446 10.8543836805557  6.24479166666669 11  5.5 11  C 4.67881944444446 11  3.89822048611114 10.8269314236104  3.158203125 10.480794270833  C 2.41818576388886 10.1346571180557  1.78797743055554 9.646484375  1.267578125 9.01627604166697  C 1.23415798611114 8.9685329861104  1.21864149305554 8.9148220486104  1.22102864583331 8.85514322916697  C 1.22341579861114 8.79546440972172  1.24370659722223 8.74652777777828  1.28190104166669 8.70833333333303  L 2.26302083333331 7.72005208333303  C 2.31076388888886 7.67708333333303  2.37044270833331 7.65559895833303  2.44205729166669 7.65559895833303  C 2.51844618055554 7.66514756944434  2.57335069444446 7.69379340277828  2.60677083333331 7.74153645833303  C 2.95529513888886 8.1950954861104  3.38259548611114 8.54600694444434  3.888671875 8.79427083333303  C 4.39474826388886 9.04253472222172  4.93185763888886 9.16666666666697  5.5 9.16666666666697  C 5.99652777777777 9.16666666666697  6.47037760416669 9.06998697916697  6.92154947916669 8.87662760416697  C 7.37272135416669 8.68326822916697  7.76302083333331 8.421875  8.09244791666669 8.09244791666697  C 8.421875 7.76302083333303  8.68326822916669 7.37272135416697  8.87662760416669 6.92154947916697  C 9.06998697916669 6.47037760416697  9.16666666666669 5.99652777777828  9.16666666666669 5.5  C 9.16666666666669 5.00347222222172  9.06998697916669 4.52962239583303  8.87662760416669 4.07845052083303  C 8.68326822916669 3.62727864583303  8.421875 3.23697916666697  8.09244791666669 2.90755208333303  C 7.76302083333331 2.578125  7.37272135416669 2.31673177083303  6.92154947916669 2.12337239583303  C 6.47037760416669 1.93001302083303  5.99652777777777 1.83333333333303  5.5 1.83333333333303  C 5.03211805555554 1.83333333333303  4.58333333333331 1.91807725694434  4.15364583333331 2.08756510416697  C 3.72395833333331 2.2570529513896  3.34201388888886 2.49934895833303  3.0078125 2.814453125  L 3.98893229166669 3.802734375  C 4.13693576388886 3.94596354166697  4.17035590277777 4.11067708333303  4.08919270833331 4.296875  C 4.00802951388886 4.48784722222172  3.8671875 4.58333333333303  3.66666666666669 4.58333333333303  L 0.458333333333314 4.58333333333303  C 0.334201388888857 4.58333333333303  0.226779513888857 4.53797743055566  0.136067708333314 4.447265625  C 0.0453559027777715 4.35655381944434  0 4.24913194444434  0 4.125  L 0 0.91666666666697  C 0 0.71614583333303  0.0954861111111427 0.575303819444343  0.286458333333314 0.494140625  C 0.47265625 0.412977430555657  0.637369791666686 0.446397569444343  0.780598958333315 0.59440104166697  L 1.71158854166669 1.51822916666697  C 2.22243923611114 1.03602430555566  2.80609809027777 0.66243489583303  3.46256510416669 0.3974609375  C 4.11903211805554 0.13248697916697  4.79817708333331 0  5.5 0  C 6.24479166666669 0  6.95616319444446 0.145616319444343  7.63411458333331 0.43684895833303  C 8.31206597222223 0.728081597221717  8.89691840277777 1.11957465277828  9.388671875 1.611328125  C 9.88042534722223 2.10308159722172  10.2719184027778 2.68793402777828  10.5631510416667 3.36588541666697  Z M 6.35221354166669 3.27278645833303  C 6.39518229166669 3.31575520833303  6.41666666666669 3.37065972222172  6.41666666666669 3.4375  L 6.41666666666669 6.64583333333303  C 6.41666666666669 6.7126736111104  6.39518229166669 6.767578125  6.35221354166669 6.810546875  C 6.30924479166669 6.853515625  6.25434027777777 6.875  6.1875 6.875  L 3.89583333333331 6.875  C 3.82899305555554 6.875  3.77408854166669 6.853515625  3.73111979166669 6.810546875  C 3.68815104166669 6.767578125  3.66666666666669 6.7126736111104  3.66666666666669 6.64583333333303  L 3.66666666666669 6.1875  C 3.66666666666669 6.12065972222172  3.68815104166669 6.06575520833303  3.73111979166669 6.02278645833303  C 3.77408854166669 5.97981770833303  3.82899305555554 5.95833333333303  3.89583333333331 5.95833333333303  L 5.5 5.95833333333303  L 5.5 3.4375  C 5.5 3.37065972222172  5.521484375 3.31575520833303  5.564453125 3.27278645833303  C 5.607421875 3.22981770833303  5.66232638888886 3.20833333333303  5.72916666666669 3.20833333333303  L 6.1875 3.20833333333303  C 6.25434027777777 3.20833333333303  6.30924479166669 3.22981770833303  6.35221354166669 3.27278645833303  Z " fill-rule="nonzero" fill="#000000" stroke="none" transform="matrix(1 0 0 1 489 494 )" />
  </g>
</svg>