<?xml version="1.0" encoding="utf-8"?>
<svg version="1.1" xmlns:xlink="http://www.w3.org/1999/xlink" width="10px" height="14px" xmlns="http://www.w3.org/2000/svg">
  <g transform="matrix(1 0 0 1 -566 -475 )">
    <path d="M 9.86081370449676 8.5234375  C 9.95360456816559 8.75260416666606  10 8.99739583333303  10 9.2578125  C 10 10.0546875  9.64489650249823 10.7408854166661  8.93468950749468 11.31640625  C 8.22448251249108 11.8919270833339  7.30192719486081 12.2473958333339  6.16702355460387 12.3828125  L 6.16702355460387 13.75  C 6.16702355460387 13.8229166666661  6.13490364025694 13.8828125  6.07066381156312 13.9296875  C 6.00642398286936 13.9765625  5.9243397573162 14  5.82441113490364 14  L 4.37901498929335 14  C 4.28622412562459 14  4.2059243397573 13.9752604166661  4.13811563169168 13.92578125  C 4.07030692362594 13.8763020833339  4.03640256959318 13.817708333333  4.03640256959318 13.75  L 4.03640256959318 12.3828125  C 3.56531049250532 12.3359375  3.11027837259098 12.2552083333339  2.67130620985012 12.140625  C 2.23233404710919 12.0260416666661  1.87009279086368 11.91015625  1.58458244111347 11.79296875  C 1.29907209136331 11.67578125  1.03497501784443 11.55078125  0.792291220556763 11.41796875  C 0.549607423269094 11.28515625  0.383654532476783 11.1875  0.294432548179884 11.125  C 0.205210563882929 11.0625  0.142755174875106 11.015625  0.107066381156301 10.984375  C -0.0142755174875333 10.875  -0.0214132762312715 10.7682291666661  0.0856531049250293 10.6640625  L 1.18843683083514 9.609375  C 1.23840114204137 9.55729166666606  1.32048536759453 9.52604166666606  1.43468950749468 9.515625  C 1.54175588865098 9.50520833333394  1.62740899357601 9.52864583333394  1.69164882226983 9.5859375  L 1.71306209850104 9.6015625  C 2.51962883654534 10.1171875  3.38686652391152 10.4427083333339  4.31477516059954 10.578125  C 4.57887223411848 10.6197916666661  4.84296930763736 10.640625  5.1070663811563 10.640625  C 5.68522483940046 10.640625  6.19379014989295 10.528645833333  6.63276231263382 10.3046875  C 7.07173447537468 10.080729166667  7.2912205567452 9.76302083333303  7.2912205567452 9.3515625  C 7.2912205567452 9.20572916666697  7.23768736616699 9.06770833333394  7.13062098501069 8.9375  C 7.02355460385439 8.80729166666606  6.90399714489649 8.69791666666606  6.77194860813705 8.609375  C 6.63990007137761 8.52083333333394  6.43112062812281 8.42317708333303  6.1456102783726 8.31640625  C 5.86009992862239 8.20963541666697  5.62455389007852 8.12630208333394  5.43897216274092 8.06640625  C 5.25339043540328 8.00651041666606  4.96788008565306 7.921875  4.58244111349035 7.8125  C 4.30406852248393 7.72916666666697  4.08458244111347 7.6640625  3.92398286937902 7.6171875  C 3.76338329764457 7.5703125  3.5438972162741 7.50130208333303  3.26552462526769 7.41015625  C 2.98715203426121 7.31901041666697  2.76409707351894 7.23828125  2.59635974304069 7.16796875  C 2.4286224125625 7.09765625  2.22698072805139 7.00520833333394  1.99143468950751 6.890625  C 1.75588865096358 6.77604166666606  1.56495360456813 6.66536458333303  1.41862955032121 6.55859375  C 1.27230549607424 6.45182291666697  1.11705924339759 6.32421875  0.952890792291214 6.17578125  C 0.788722341184894 6.02734375  0.662027123483256 5.87630208333394  0.572805139186244 5.72265625  C 0.483583154889345 5.56901041666697  0.40863668807998 5.39583333333303  0.347965738758035 5.203125  C 0.287294789436146 5.01041666666697  0.256959314775145 4.80729166666606  0.256959314775145 4.59375  C 0.256959314775145 3.875  0.606709493219114 3.24479166666697  1.30620985010705 2.703125  C 2.00571020699499 2.16145833333303  2.91577444682372 1.8125  4.03640256959318 1.65625  L 4.03640256959318 0.25  C 4.03640256959318 0.18229166666697  4.07030692362594 0.12369791666606  4.13811563169168 0.07421875  C 4.2059243397573 0.0247395833339397  4.28622412562459 0  4.37901498929335 0  L 5.82441113490364 0  C 5.9243397573162 0  6.00642398286936 0.0234375  6.07066381156312 0.0703125  C 6.13490364025694 0.1171875  6.16702355460387 0.17708333333394  6.16702355460387 0.25  L 6.16702355460387 1.625  C 6.57387580299786 1.65625  6.96823697359025 1.71614583333303  7.35010706638116 1.8046875  C 7.731977159172 1.89322916666697  8.04246966452536 1.98046875  8.28158458244116 2.06640625  C 8.5206995003569 2.15234375  8.7473233404711 2.25  8.9614561027837 2.359375  C 9.17558886509636 2.46875  9.31477516059954 2.54427083333303  9.37901498929335 2.5859375  C 9.44325481798717 2.62760416666606  9.49678800856532 2.6640625  9.53961456102786 2.6953125  C 9.6609564596717 2.7890625  9.6788008565311 2.88802083333394  9.59314775160595 2.9921875  L 8.72591006423983 4.1328125  C 8.66880799428981 4.2109375  8.58672376873659 4.25260416666606  8.47965738758029 4.2578125  C 8.37972876516773 4.2734375  8.28336902212709 4.25520833333394  8.19057815845827 4.203125  C 8.16916488222699 4.1875  8.11741613133478 4.15625  8.03533190578162 4.109375  C 7.9532476802284 4.0625  7.81406138472516 3.99348958333303  7.61777301927197 3.90234375  C 7.42148465381871 3.81119791666606  7.21270521056385 3.72786458333303  6.99143468950751 3.65234375  C 6.77016416845112 3.57682291666606  6.50428265524624 3.50911458333303  6.19379014989295 3.44921875  C 5.8832976445396 3.38932291666697  5.5781584582441 3.359375  5.27837259100642 3.359375  C 4.60028551034975 3.359375  4.04710920770879 3.47135416666697  3.61884368308353 3.6953125  C 3.19057815845827 3.91927083333303  2.97644539614561 4.20833333333394  2.97644539614561 4.5625  C 2.97644539614561 4.69791666666606  3.00678087080655 4.82291666666606  3.06745182012844 4.9375  C 3.12812276945039 5.05208333333303  3.23340471092075 5.16015625  3.3832976445396 5.26171875  C 3.5331905781585 5.36328125  3.67416131334761 5.44921875  3.80620985010705 5.51953125  C 3.93825838686655 5.58984375  4.13811563169168 5.67057291666606  4.40578158458243 5.76171875  C 4.67344753747324 5.85286458333303  4.88936473947183 5.92317708333394  5.05353319057815 5.97265625  C 5.21770164168447 6.02213541666697  5.46752319771588 6.09375  5.80299785867237 6.1875  C 6.18129907209141 6.29166666666606  6.47037830121343 6.37369791666606  6.67023554603855 6.43359375  C 6.87009279086368 6.49348958333394  7.14132762312636 6.58463541666606  7.48394004282653 6.70703125  C 7.82655246252676 6.82942708333303  8.09600285510351 6.94010416666606  8.29229122055676 7.0390625  C 8.48857958601002 7.13802083333303  8.70985010706636 7.26822916666606  8.9561027837259 7.4296875  C 9.20235546038543 7.59114583333394  9.39150606709495 7.75651041666697  9.52355460385439 7.92578125  C 9.65560314061383 8.09505208333303  9.768022840828 8.29427083333303  9.86081370449676 8.5234375  Z " fill-rule="nonzero" fill="#ffffff" stroke="none" transform="matrix(1 0 0 1 566 475 )" />
  </g>
</svg>