<?xml version="1.0" encoding="utf-8"?>
<svg version="1.1" xmlns:xlink="http://www.w3.org/1999/xlink" width="14px" height="13px" xmlns="http://www.w3.org/2000/svg">
  <g transform="matrix(1 0 0 1 -837 -377 )">
    <path d="M 1 12  L 14 12  L 14 13  L 0 13  L 0 0  L 1 0  L 1 12  Z M 13.0634765625 1.15950520833303  C 13.1044921875 1.21028645833303  13.125 1.27517361111131  13.125 1.35416666666697  L 13.125 5.03580729166697  C 13.125 5.154296875  13.08056640625 5.23752170138869  12.99169921875 5.28548177083303  C 12.90283203125 5.33344184027737  12.8219401041666 5.31228298611131  12.7490234375 5.22200520833303  L 11.921875 4.19791666666697  L 7.5947265625 9.55533854166697  C 7.54915364583337 9.61176215277737  7.49674479166663 9.63997395833303  7.4375 9.63997395833303  C 7.37825520833337 9.63997395833303  7.32584635416663 9.61176215277737  7.2802734375 9.55533854166697  L 5.6875 7.58333333333303  L 2.84375 11.104166666667  L 1.53125 9.47916666666697  L 5.5302734375 4.52799479166697  C 5.57584635416663 4.47157118055566  5.62825520833337 4.443359375  5.6875 4.443359375  C 5.74674479166663 4.443359375  5.79915364583337 4.47157118055566  5.8447265625 4.52799479166697  L 7.4375 6.5  L 10.609375 2.57291666666697  L 9.7822265625 1.548828125  C 9.70930989583337 1.45855034722263  9.69222005208337 1.3583984375  9.73095703125 1.24837239583303  C 9.76969401041663 1.13834635416697  9.8369140625 1.08333333333303  9.9326171875 1.08333333333303  L 12.90625 1.08333333333303  C 12.9700520833334 1.08333333333303  13.0224609375 1.10872395833303  13.0634765625 1.15950520833303  Z " fill-rule="nonzero" fill="#000000" stroke="none" transform="matrix(1 0 0 1 837 377 )" />
  </g>
</svg>