<?xml version="1.0" encoding="utf-8"?>
<svg version="1.1" xmlns:xlink="http://www.w3.org/1999/xlink" width="27px" height="57px" xmlns="http://www.w3.org/2000/svg">
  <g transform="matrix(1 0 0 1 -2045 -678 )">
    <path d="M 25.5234375 17.3590909090908  C 26.5078125 18.568181818182  27 20.0363636363636  27 21.7636363636366  L 27 35.2363636363634  C 27 36.1000000000004  26.75390625 36.8340909090912  26.26171875 37.4386363636368  C 25.76953125 38.0431818181814  25.171875 38.3454545454542  24.46875 38.3454545454542  C 23.765625 38.3454545454542  23.16796875 38.0431818181814  22.67578125 37.4386363636368  C 22.18359375 36.8340909090912  21.9375 36.1000000000004  22 35.2363636363634  L 22 23.8363636363638  L 20 23.8363636363638  L 20 53.3727272727274  C 20.25 54.3659090909096  19.9599609375 55.21875  19.3798828125 55.9312499999996  C 18.7998046875 56.6437500000002  18.10546875 57  17.296875 57  C 16.48828125 57  15.7939453125 56.6437500000002  15.2138671875 55.9312499999996  C 14.6337890625 55.21875  14.34375 54.3659090909096  14 53.3727272727274  L 14 38.3454545454542  L 13 38.3454545454542  L 13 53.3727272727274  C 12.65625 54.3659090909096  12.3662109375 55.21875  11.7861328125 55.9312499999996  C 11.2060546875 56.6437500000002  10.51171875 57  9.703125 57  C 8.89453125 57  8.2001953125 56.6437500000002  7.6201171875 55.9312499999996  C 7.0400390625 55.21875  6.75 54.3659090909096  7 53.3727272727274  L 7 23.8363636363638  L 5 23.8363636363638  L 5 35.2363636363634  C 5.0625 36.1000000000004  4.81640625 36.8340909090912  4.32421875 37.4386363636368  C 3.83203125 38.0431818181814  3.234375 38.3454545454542  2.53125 38.3454545454542  C 1.828125 38.3454545454542  1.23046875 38.0431818181814  0.73828125 37.4386363636368  C 0.24609375 36.8340909090912  0 36.1000000000004  0 35.2363636363634  L 0 21.7636363636366  C 0 20.0363636363636  0.4921875 18.568181818182  1.4765625 17.3590909090908  C 2.4609375 16.1499999999996  3.65625 15.545454545455  5.0625 16  L 21.9375 16  C 23.34375 15.545454545455  24.5390625 16.1499999999996  25.5234375 17.3590909090908  Z M 17.67919921875 2.12130681818144  C 18.83056640625 3.53551136363603  19.40625 5.24659090909063  19.40625 7.25454545454522  C 19.40625 9.26249999999982  18.83056640625 10.9735795454544  17.67919921875 12.387784090909  C 16.52783203125 13.8019886363636  15.134765625 14.5090909090904  13.5 14.5090909090904  C 11.865234375 14.5090909090904  10.47216796875 13.8019886363636  9.32080078125 12.387784090909  C 8.16943359375 10.9735795454544  7.59375 9.26249999999982  7.59375 7.25454545454522  C 7.59375 5.24659090909063  8.16943359375 3.53551136363603  9.32080078125 2.12130681818144  C 10.47216796875 0.707102272726843  11.865234375 0  13.5 0  C 15.134765625 0  16.52783203125 0.707102272726843  17.67919921875 2.12130681818144  Z " fill-rule="nonzero" fill="#999999" stroke="none" transform="matrix(1 0 0 1 2045 678 )" />
  </g>
</svg>