<?xml version="1.0" encoding="utf-8"?>
<svg version="1.1" xmlns:xlink="http://www.w3.org/1999/xlink" width="31px" height="42px" xmlns="http://www.w3.org/2000/svg">
  <g transform="matrix(1 0 0 1 -801 -663 )">
    <path d="M 30.2207880434783 18.5738125802309  C 30.7402626811594 19.2028241335047  31 20.0115532734271  31 21  C 31 21.9704749679077  30.7402626811594 22.7881899871627  30.2207880434783 23.453145057767  L 16.5108695652174 41.0025673940945  C 15.9633152173913 41.6675224646979  15.3245018115942 42  14.5944293478261 42  C 13.8783967391304 42  13.2466032608696 41.6675224646979  12.6990489130435 41.0025673940945  L 11.1195652173913 38.9807445442875  C 10.5860507246376 38.2978177150198  10.3192934782609 37.4801026957639  10.3192934782609 36.5275994865215  C 10.3192934782609 35.5750962772781  10.5860507246376 34.7573812580231  11.1195652173913 34.0744544287545  L 17.2900815217391 26  L 2.46399456521738 26  C 1.73392210144925 26.1758664955069  1.14073822463763 25.8388960205393  0.684442934782624 25.1649550706034  C 0.228147644927503 24.4910141206674  0 23.6777920410786  0 22.7252888318353  L 0 19.2747111681647  C 0 18.3222079589214  0.228147644927503 17.5089858793326  0.684442934782624 16.8350449293966  C 1.14073822463763 16.1611039794607  1.73392210144925 15.8241335044931  2.46399456521738 16  L 17.2900815217391 16  L 11.1195652173913 7.89858793324765  C 10.5860507246376 7.25160462130953  10.3192934782609 6.44287548138618  10.3192934782609 5.47240051347853  C 10.3192934782609 4.50192554557088  10.5860507246376 3.69319640564845  11.1195652173913 3.04621309370941  L 12.6990489130435 1.02439024390242  C 13.2325634057971 0.341463414633836  13.864356884058 0  14.5944293478261 0  C 15.3385416666666 0  15.9773550724638 0.341463414633836  16.5108695652174 1.02439024390242  L 30.2207880434783 18.5738125802309  Z " fill-rule="nonzero" fill="#ffffff" stroke="none" transform="matrix(1 0 0 1 801 663 )" />
  </g>
</svg>